<svg id="favicon" xmlns="http://www.w3.org/2000/svg" viewBox="0 0 96 96">
    <style>
    path {
        fill: black;
    }
    @media (prefers-color-scheme: dark) {
        path {
            fill: white;
        }
    }
    </style>
    <g>
        <path d="M54.2,71.2c-0.1,0.1-0.2,0.2-0.3,0.3c0,0,0,0,0,0c11.9,1.1,18.4,5.3,18.4,7c0,2-8.5,5.9-24.2,5.9
            c-15.7,0-24.2-3.9-24.2-5.9c0-1.7,6.4-5.9,18.3-7c0,0,0,0,0,0c-0.1-0.1-0.2-0.2-0.3-0.4c-11.3,0.8-19.7,3.8-19.7,7.4
            c0,4.2,11.6,9,25.9,9c14.3,0,25.9-4.8,25.9-9C73.9,75.1,65.5,72.1,54.2,71.2z"/>
        <path d="M94.5,8.5c-4.1,2.9-12,7.4-23.9,10.3c3.2,4.3,5.2,9.6,5.5,15.3c10.3-8,16.8-18.7,19.8-24.4C96.4,8.9,95.3,8,94.5,8.5z"/>
        <path d="M1.5,8.5C0.7,8-0.4,8.9,0.1,9.8c3,5.6,9.5,16.4,19.8,24.4c0.3-5.7,2.3-11,5.5-15.3C13.5,16,5.6,11.4,1.5,8.5z"/>
        <path d="M39.8,70.5c0.7-0.5,1.9-0.2,2.7,0.8c0.8,1,0.8,2.3,0,2.8c0,0,0,0-0.1,0c0.9,1.1,1.6,2.1,2.4,3c1.7,2.1,4.7,2.1,6.4,0
            c0.7-0.9,1.5-1.8,2.3-2.9c0,0-0.1,0-0.1-0.1c-0.7-0.6-0.7-1.8,0.1-2.8c0.8-1,2-1.3,2.7-0.8c0,0,0,0.1,0.1,0.1
            c7.6-10.2,17.7-25.5,17.7-34.9C73.9,21.3,62.3,9.7,48,9.7c-14.3,0-25.9,11.6-25.9,25.9C22.1,45.1,32.1,60.4,39.8,70.5
            C39.7,70.5,39.8,70.5,39.8,70.5z M48,22.1c5.1,0,9.3,4.2,9.3,9.3s-4.2,9.3-9.3,9.3s-9.3-4.2-9.3-9.3S42.9,22.1,48,22.1z"/>
    </g>
</svg>
